# ProBuilder 4.5.2
# https://unity3d.com/unity/features/worldbuilding/probuilder
# 15/12/2021 00:43:53

mtllib ./Slope_Example.mtl
o Slope_Example

g Slope_Example
v -1.0001 0 -3.0001
v -3.0001 0 -3.0001
v -1.0001 1.25 -3.0001
v -3.0001 2 -3.0001
v -4.0002 0 -3.0001
v -4.0002 0 -4.0001
v -4.0002 2 -3.0001
v -4.0002 2 -4.0001
v -3.0001 0 -4.0001
v -1.0001 0 -4.0001
v -3.0001 2 -4.0001
v -1.0001 1.25 -4.0001
v 0 0 -4.0001
v 0 0 -3.0001
v 0 1.25 -4.0001
v 0 1.25 -3.0001
v -1.0001 0 0
v 0 0 0
v -4.0001 0 -0.0001001358
v -1.0001 2 -0.0001001358
v -4.0001 2 -0.0001001358
v -1.0001 2 -3.0001

vt -1.0001 0
vt -3.0001 0
vt -1.0001 1.25
vt -3.0001 2
vt -4.0001 0
vt -4.0001 2
vt 3.0001 0
vt 1.0001 0
vt 3.0001 2
vt 1.0001 1.25
vt 4.0001 0
vt 4.0001 1.25
vt 3.0001 1.25
vt 1.375327 -3.0001
vt 3.511328 -3.0001
vt 1.375327 -4.0001
vt 3.511328 -4.0001
vt -1.0001 -4.0001
vt -3.0001 -4.0001
vt -1.0001 -3.0001
vt -3.0001 -3.0001
vt 0 -4.0001
vt 0 -3.0001
vt 0 1.25
vt 0 0
vt 1.0001 -3.0001
vt 1.0001 -4.0001
vt -3.0001 1.25
vt 1.0001 -3.250092
vt 0 -3.250092
vt -4.0002 -3.0001
vt -4.0002 -4.0001
vt 4.0002 2
vt 3.0001 -4.0001
vt 3.0001 -3.0001
vt 4.0002 -4.0001
vt 4.0002 -3.0001
vt -1.0001 2
vt -6.0001 0
vt -6.0001 2
vt 1.0001 2
vt 6.0001 0
vt 6.0001 2
vt 1.0001 -6.0001
vt 4.0001 -6.0001
vt -1.0001 -6.0001
vt -4.0001 -6.0001

vn 0 0 1
vn -1 0 0
vn 0 0 -1
vn 1 0 0
vn 0.3511235 0.9363292 0
vn 0 -1 0
vn 0 1 0
vn 0 0.9230815 0.3846044

usemtl M_ProtoGrid_01
f 17/25/2 3/28/2 1/2/2
f 18/25/4 14/7/4 16/13/4
f 4/4/1 2/2/1 1/1/1
f 1/1/1 3/3/1 4/4/1
f 8/6/2 6/5/2 5/2/2
f 5/2/2 7/4/2 8/6/2
f 12/10/3 10/8/3 9/7/3
f 9/7/3 11/9/3 12/10/3
f 16/13/4 14/7/4 13/11/4
f 13/11/4 15/12/4 16/13/4
f 11/17/5 4/15/5 3/14/5
f 3/14/5 12/16/5 11/17/5
f 2/21/6 9/19/6 10/18/6
f 10/18/6 1/20/6 2/21/6
f 14/23/6 1/20/6 10/18/6
f 10/18/6 13/22/6 14/23/6
f 13/25/3 10/8/3 12/10/3
f 12/10/3 15/24/3 13/25/3
f 15/22/7 12/27/7 3/26/7
f 3/26/7 16/23/7 15/22/7
f 17/1/6 1/20/6 14/23/6
f 14/23/6 18/25/6 17/1/6
f 18/25/8 16/30/8 3/29/8
f 3/29/8 17/8/8 18/25/8
f 6/32/6 9/19/6 2/21/6
f 2/21/6 5/31/6 6/32/6
f 5/5/1 2/2/1 4/4/1
f 4/4/1 7/6/1 5/5/1
f 8/33/3 11/9/3 9/7/3
f 9/7/3 6/11/3 8/33/3
f 7/37/7 4/35/7 11/34/7
f 11/34/7 8/36/7 7/37/7
f 21/6/1 19/5/1 17/1/1
f 17/1/1 20/38/1 21/6/1
f 7/40/2 5/39/2 19/2/2
f 19/2/2 21/4/2 7/40/2
f 22/41/3 1/8/3 5/11/3
f 5/11/3 7/33/3 22/41/3
f 20/9/4 17/7/4 1/42/4
f 1/42/4 22/43/4 20/9/4
f 7/45/7 21/37/7 20/26/7
f 20/26/7 22/44/7 7/45/7
f 19/31/6 5/47/6 1/46/6
f 1/46/6 17/20/6 19/31/6

